<svg width="156" height="185" viewBox="0 0 156 185" fill="none" xmlns="http://www.w3.org/2000/svg">
<g clip-path="url(#clip0_41_458)">
<path d="M6.66699 1.5H149.333C152.186 1.5 154.5 3.81355 154.5 6.66699V173.54C154.5 175.774 153.09 177.612 151.038 178.058C142.38 179.939 120.393 183.5 78 183.5C35.6069 183.5 13.6197 179.939 4.96191 178.058C2.91007 177.612 1.50001 175.774 1.5 173.54V6.66699C1.5 3.81355 3.81355 1.5 6.66699 1.5Z" fill="#0B0B0B" stroke="url(#paint0_linear_41_458)" stroke-width="2.99997"/>
<path d="M141 11C143.209 11 145 12.7909 145 15V153C145 155.209 143.209 157 141 157H15C12.7909 157 11 155.209 11 153V15C11 12.7909 12.7909 11 15 11H141Z" fill="#303030"/>
<path d="M107.562 167.315C107.761 167.315 107.919 167.157 107.919 166.958V166.783C107.919 166.59 107.761 166.431 107.562 166.431H104.729C104.536 166.431 104.378 166.59 104.378 166.783V166.958C104.378 167.157 104.536 167.315 104.729 167.315H107.562ZM104.021 168.732C103.239 168.732 102.604 168.097 102.604 167.315V166.607C102.604 165.825 103.239 165.19 104.021 165.19H107.562C107.761 165.19 107.919 165.032 107.919 164.833C107.919 164.641 107.761 164.482 107.562 164.482H102.961V163.065H108.271C109.053 163.065 109.687 163.7 109.687 164.482V167.315C109.687 168.097 109.053 168.732 108.271 168.732H104.021Z" fill="#303030"/>
<path d="M94.9478 168.732V162H96.7214V162.708C96.7214 162.907 96.8801 163.065 97.0728 163.065H100.614C101.396 163.065 102.031 163.7 102.031 164.482V168.732H100.263V165.19C100.263 164.799 99.9458 164.482 99.5548 164.482H97.4298C97.0388 164.482 96.7214 164.799 96.7214 165.19V168.732H94.9478Z" fill="#303030"/>
<path d="M89.4167 168.732C88.6347 168.732 88 168.097 88 167.315V164.482C88 163.7 88.6347 163.065 89.4167 163.065H94.375V164.482H90.482C90.091 164.482 89.7737 164.799 89.7737 165.19V166.607C89.7737 166.998 90.091 167.315 90.482 167.315H94.375V168.732H89.4167Z" fill="#303030"/>
<path d="M85.3024 168.732C84.5204 168.732 83.8857 168.097 83.8857 167.315V162H85.6594V162.708C85.6594 162.907 85.8181 163.065 86.0107 163.065H87.2517V164.482H86.0107C85.8181 164.482 85.6594 164.641 85.6594 164.833V166.607C85.6594 166.998 85.9767 167.315 86.3677 167.315H87.4274V168.732H85.3024Z" fill="#303030"/>
<path d="M80.8365 167.315C81.2275 167.315 81.5448 166.998 81.5448 166.607V165.19C81.5448 164.799 81.2275 164.482 80.8365 164.482H78.7115C78.3205 164.482 78.0032 164.799 78.0032 165.19V166.958C78.0032 167.157 78.1618 167.315 78.3545 167.315H80.8365ZM76.2295 169.792V164.482C76.2295 163.7 76.8642 163.065 77.6462 163.065H81.8962C82.6782 163.065 83.3128 163.7 83.3128 164.482V167.315C83.3128 168.097 82.6782 168.732 81.8962 168.732H78.3545C78.1618 168.732 78.0032 168.891 78.0032 169.083V169.792H76.2295Z" fill="#303030"/>
<path d="M73.5316 167.315C73.7299 167.315 73.8886 167.157 73.8886 166.958V166.783C73.8886 166.59 73.7299 166.431 73.5316 166.431H70.6982C70.5056 166.431 70.3469 166.59 70.3469 166.783V166.958C70.3469 167.157 70.5056 167.315 70.6982 167.315H73.5316ZM69.9899 168.732C69.2079 168.732 68.5732 168.097 68.5732 167.315V166.607C68.5732 165.825 69.2079 165.19 69.9899 165.19H73.5316C73.7299 165.19 73.8886 165.032 73.8886 164.833C73.8886 164.641 73.7299 164.482 73.5316 164.482H68.9302V163.065H74.2399C75.0219 163.065 75.6566 163.7 75.6566 164.482V167.315C75.6566 168.097 75.0219 168.732 74.2399 168.732H69.9899Z" fill="#303030"/>
<path d="M63.0422 168.732C62.2602 168.732 61.6255 168.097 61.6255 167.315V164.482C61.6255 163.7 62.2602 163.065 63.0422 163.065H68.0005V164.482H64.1075C63.7165 164.482 63.3992 164.799 63.3992 165.19V166.607C63.3992 166.998 63.7165 167.315 64.1075 167.315H68.0005V168.732H63.0422Z" fill="#989898"/>
<path d="M58.5762 165.723C58.9332 165.723 59.2336 165.451 59.2789 165.1C59.2336 164.754 58.9332 164.482 58.5762 164.482H56.0942C55.9016 164.482 55.7429 164.641 55.7429 164.833V165.366C55.7429 165.564 55.9016 165.723 56.0942 165.723H58.5762ZM53.9692 168.732V163.065H59.6359C60.4179 163.065 61.0526 163.7 61.0526 164.482V165.542C61.0526 165.967 60.8656 166.346 60.5709 166.607C60.8656 166.868 61.0526 167.247 61.0526 167.667V168.732H59.2846V167.491C59.2846 167.298 59.1259 167.14 58.9276 167.14H56.0942C55.9016 167.14 55.7429 167.298 55.7429 167.491V168.732H53.9692Z" fill="#989898"/>
<path d="M51.2713 165.723C51.4697 165.723 51.6283 165.564 51.6283 165.366V165.19C51.6283 164.799 51.311 164.482 50.92 164.482H48.795C48.404 164.482 48.0867 164.799 48.0867 165.19V165.366C48.0867 165.564 48.2453 165.723 48.438 165.723H51.2713ZM46.313 168.732V164.482C46.313 163.7 46.9477 163.065 47.7297 163.065H51.9797C52.7617 163.065 53.3963 163.7 53.3963 164.482V168.732H51.6283V167.491C51.6283 167.298 51.4697 167.14 51.2713 167.14H48.438C48.2453 167.14 48.0867 167.298 48.0867 167.491V168.732H46.313Z" fill="#989898"/>
</g>
<defs>
<linearGradient id="paint0_linear_41_458" x1="85.5996" y1="0" x2="85.5996" y2="171.6" gradientUnits="userSpaceOnUse">
<stop offset="0.0484643" stop-color="#844D00"/>
<stop offset="0.0980919" stop-color="#955700"/>
<stop offset="0.788367" stop-color="#A25E00"/>
<stop offset="0.958303" stop-color="#B86B00"/>
</linearGradient>
<clipPath id="clip0_41_458">
<rect width="156" height="185" fill="white"/>
</clipPath>
</defs>
</svg>
