<svg width="24" height="7" viewBox="0 0 24 7" fill="none" xmlns="http://www.w3.org/2000/svg">
<path d="M3.4313 5V2.936C3.4313 2.834 3.3473 2.75 3.2423 2.75H2.0243V2H5.7743V2.75H4.5563C4.4513 2.75 4.3673 2.834 4.3673 2.936V5H3.4313ZM8.51658 4.25C8.72358 4.25 8.89158 4.082 8.89158 3.875V3.125C8.89158 2.918 8.72358 2.75 8.51658 2.75H7.39158C7.18458 2.75 7.01658 2.918 7.01658 3.125V3.875C7.01658 4.082 7.18458 4.25 7.39158 4.25H8.51658ZM6.82758 5C6.41358 5 6.07758 4.664 6.07758 4.25V2.75C6.07758 2.336 6.41358 2 6.82758 2H9.07758C9.49158 2 9.82758 2.336 9.82758 2.75V4.25C9.82758 4.664 9.49158 5 9.07758 5H6.82758ZM10.8809 5C10.4669 5 10.1309 4.664 10.1309 4.25V2H11.0699V3.875C11.0699 4.082 11.2379 4.25 11.4449 4.25H12.7559C12.8609 4.25 12.9449 4.166 12.9449 4.061V2H13.8809V5H10.8809ZM14.9341 5C14.5201 5 14.1841 4.664 14.1841 4.25V2.75C14.1841 2.336 14.5201 2 14.9341 2H17.5591V2.75H15.4981C15.2911 2.75 15.1231 2.918 15.1231 3.125V3.875C15.1231 4.082 15.2911 4.25 15.4981 4.25H17.5591V5H14.9341ZM17.8624 5V2H18.8014V2.936C18.8014 3.041 18.8854 3.125 18.9874 3.125H20.4874C20.5924 3.125 20.6764 3.041 20.6764 2.936V2H21.6124V5H20.6764V4.061C20.6764 3.959 20.5924 3.875 20.4874 3.875H18.9874C18.8854 3.875 18.8014 3.959 18.8014 4.061V5H17.8624Z" fill="#1B1B1B"/>
</svg>
