<svg width="66" height="68" viewBox="0 0 66 68" fill="none" xmlns="http://www.w3.org/2000/svg">
<g clip-path="url(#clip0_32_317)">
<path d="M20.6667 23.8889C21.403 23.8889 22 23.292 22 22.5556V6.28893C22 3.85888 23.9699 1.88893 26.4 1.88893H39.6C42.0301 1.88893 44 3.85888 44 6.28893V22.5556C44 23.292 44.597 23.8889 45.3333 23.8889H61.6C64.0301 23.8889 66 25.8589 66 28.2889V41.4889C66 43.919 64.0301 45.8889 61.6 45.8889H45.3333C44.597 45.8889 44 46.4859 44 47.2223V63.4889C44 65.919 42.0301 67.8889 39.6 67.8889H26.4C23.9699 67.8889 22 65.919 22 63.4889V47.2223C22 46.4859 21.403 45.8889 20.6667 45.8889H4.4C1.96995 45.8889 0 43.919 0 41.4889V28.2889C0 25.8589 1.96995 23.8889 4.4 23.8889L20.6667 23.8889Z" fill="black" fill-opacity="0.25"/>
<path d="M20.6667 21.9996C21.403 21.9996 22 21.4027 22 20.6663V4.39963C22 1.96958 23.9699 -0.000366211 26.4 -0.000366211H39.6C42.0301 -0.000366211 44 1.96958 44 4.39963V20.6663C44 21.4027 44.597 21.9996 45.3333 21.9996H61.6C64.0301 21.9996 66 23.9696 66 26.3996V39.5996C66 42.0297 64.0301 43.9996 61.6 43.9996H45.3333C44.597 43.9996 44 44.5966 44 45.333V61.5996C44 64.0297 42.0301 65.9996 39.6 65.9996H26.4C23.9699 65.9996 22 64.0297 22 61.5996V45.333C22 44.5966 21.403 43.9996 20.6667 43.9996H4.4C1.96995 43.9996 0 42.0297 0 39.5996V26.3996C0 23.9696 1.96995 21.9996 4.4 21.9996L20.6667 21.9996Z" fill="url(#paint0_radial_32_317)"/>
<path d="M26.4004 0.999634H39.5996C41.4774 0.999634 43 2.52226 43 4.40002V20.6666C43.0002 21.955 44.0446 22.9995 45.333 22.9996H61.5996C63.4774 22.9996 65 24.5223 65 26.4V39.5992C65 41.477 63.4774 42.9996 61.5996 42.9996H45.333C44.0446 42.9998 43.0002 44.0442 43 45.3326V61.5992C43 63.477 41.4774 64.9996 39.5996 64.9996H26.4004C24.5226 64.9996 23 63.477 23 61.5992V45.3326C22.9998 44.0442 21.9554 42.9998 20.667 42.9996H4.40039C2.52262 42.9996 1 41.477 1 39.5992V26.4C1 24.5223 2.52262 22.9996 4.40039 22.9996H20.667C21.9554 22.9995 22.9998 21.955 23 20.6666V4.40002C23 2.52226 24.5226 0.999634 26.4004 0.999634Z" stroke="url(#paint1_linear_32_317)" stroke-opacity="0.24" stroke-width="2"/>
<path d="M31.0946 7.22241C31.9414 5.7582 34.0583 5.7582 34.9051 7.22241L37.6753 12.0125C38.5221 13.4767 37.4636 15.307 35.7701 15.307H30.2297C28.5361 15.307 27.4776 13.4767 28.3244 12.0125L31.0946 7.22241Z" fill="#D9D9D9" fill-opacity="0.26"/>
<path d="M34.9054 58.5555C34.0586 60.0197 31.9417 60.0197 31.0949 58.5555L28.3247 53.7654C27.4779 52.3012 28.5364 50.471 30.2299 50.471L35.7703 50.471C37.4639 50.4709 38.5224 52.3012 37.6756 53.7654L34.9054 58.5555Z" fill="#D9D9D9" fill-opacity="0.26"/>
<path d="M58.7096 30.987C60.1762 31.8323 60.1762 33.9457 58.7096 34.7911L53.9114 37.5567C52.4448 38.402 50.6114 37.3453 50.6114 35.6546L50.6114 30.1235C50.6114 28.4328 52.4448 27.3761 53.9114 28.2214L58.7096 30.987Z" fill="#D9D9D9" fill-opacity="0.26"/>
<path d="M7.29092 34.7909C5.82425 33.9455 5.82425 31.8321 7.29092 30.9868L12.0891 28.2212C13.5557 27.3759 15.3891 28.4326 15.3891 30.1233L15.3891 35.6544C15.3891 37.3451 13.5557 38.4018 12.0891 37.5564L7.29092 34.7909Z" fill="#D9D9D9" fill-opacity="0.26"/>
<ellipse cx="33.0003" cy="32.9443" rx="4.45436" ry="4.44688" fill="#3B3B3B"/>
</g>
<defs>
<radialGradient id="paint0_radial_32_317" cx="0" cy="0" r="1" gradientUnits="userSpaceOnUse" gradientTransform="translate(13.6125 11.9621) rotate(50.8639) scale(54.2449)">
<stop stop-color="#545454"/>
<stop offset="1" stop-color="#3A3A3A"/>
</radialGradient>
<linearGradient id="paint1_linear_32_317" x1="56.5125" y1="56.5121" x2="21.0375" y2="21.0371" gradientUnits="userSpaceOnUse">
<stop/>
<stop offset="1" stop-opacity="0"/>
</linearGradient>
<clipPath id="clip0_32_317">
<rect width="66" height="68" fill="white"/>
</clipPath>
</defs>
</svg>
