<svg width="50" height="50" viewBox="0 0 50 50" fill="none" xmlns="http://www.w3.org/2000/svg">
<mask id="mask0_32_320" style="mask-type:alpha" maskUnits="userSpaceOnUse" x="0" y="0" width="25" height="50">
<path d="M25 25L0 0V50L25 25Z" fill="#D9D9D9"/>
</mask>
<g mask="url(#mask0_32_320)">
<path d="M16.6667 34.6667C16.6667 33.9303 16.0697 33.3333 15.3333 33.3333L3.33333 33.3333C1.49238 33.3333 -7.93757e-07 31.8409 -8.74228e-07 30L-1.31134e-06 20C-1.39181e-06 18.159 1.49238 16.6667 3.33333 16.6667L15.3333 16.6667C16.0697 16.6667 16.6667 16.0697 16.6667 15.3333L16.6667 3.33333C16.6667 1.49238 18.159 -7.93757e-07 20 -8.74228e-07L30 -1.31134e-06C31.8409 -1.39181e-06 33.3333 1.49238 33.3333 3.33333L33.3333 15.3333C33.3333 16.0697 33.9303 16.6667 34.6667 16.6667L46.6667 16.6667C48.5076 16.6667 50 18.159 50 20L50 30C50 31.8409 48.5076 33.3333 46.6667 33.3333L34.6667 33.3333C33.9303 33.3333 33.3333 33.9303 33.3333 34.6667L33.3333 46.6667C33.3333 48.5076 31.841 50 30 50L20 50C18.1591 50 16.6667 48.5076 16.6667 46.6667L16.6667 34.6667Z" fill="url(#paint0_radial_32_320)"/>
</g>
<defs>
<radialGradient id="paint0_radial_32_320" cx="0" cy="0" r="1" gradientUnits="userSpaceOnUse" gradientTransform="translate(25 25) rotate(90) scale(25)">
<stop offset="0.206731" stop-opacity="0"/>
<stop offset="0.75" stop-color="#181818" stop-opacity="0.799414"/>
<stop offset="1" stop-color="#1E1E1E"/>
</radialGradient>
</defs>
</svg>
