<svg width="66" height="66" viewBox="0 0 66 66" fill="none" xmlns="http://www.w3.org/2000/svg">
<mask id="mask0_32_320" style="mask-type:alpha" maskUnits="userSpaceOnUse" x="0" y="0" width="33" height="66">
<path d="M33 33L0 0V66L33 33Z" fill="#D9D9D9"/>
</mask>
<g mask="url(#mask0_32_320)">
<path d="M22 45.3333C22 44.597 21.403 44 20.6667 44L4.4 44C1.96995 44 -1.04776e-06 42.0301 -1.15398e-06 39.6L-1.73097e-06 26.4C-1.83719e-06 23.9699 1.96995 22 4.4 22L20.6667 22C21.403 22 22 21.403 22 20.6667L22 4.39999C22 1.96994 23.9699 -3.67036e-06 26.4 -3.77659e-06L39.6 -4.35358e-06C42.0301 -4.4598e-06 44 1.96994 44 4.39999L44 20.6667C44 21.403 44.597 22 45.3333 22L61.6 22C64.0301 22 66 23.9699 66 26.4L66 39.6C66 42.03 64.0301 44 61.6 44L45.3333 44C44.597 44 44 44.5969 44 45.3333L44 61.6C44 64.0301 42.0301 66 39.6 66L26.4 66C23.9699 66 22 64.0301 22 61.6L22 45.3333Z" fill="url(#paint0_radial_32_320)"/>
</g>
<defs>
<radialGradient id="paint0_radial_32_320" cx="0" cy="0" r="1" gradientUnits="userSpaceOnUse" gradientTransform="translate(33 33) rotate(90) scale(33)">
<stop offset="0.206731" stop-opacity="0"/>
<stop offset="0.75" stop-color="#181818" stop-opacity="0.799414"/>
<stop offset="1" stop-color="#1E1E1E"/>
</radialGradient>
</defs>
</svg>
