<svg width="50" height="52" viewBox="0 0 50 52" fill="none" xmlns="http://www.w3.org/2000/svg">
<g clip-path="url(#clip0_32_317)">
<path d="M15.3333 18.6667C16.0697 18.6667 16.6667 18.0697 16.6667 17.3333V5.33333C16.6667 3.49238 18.1591 2 20 2H30C31.841 2 33.3333 3.49238 33.3333 5.33333V17.3333C33.3333 18.0697 33.9303 18.6667 34.6667 18.6667H46.6667C48.5076 18.6667 50 20.159 50 22V32C50 33.8409 48.5076 35.3333 46.6667 35.3333H34.6667C33.9303 35.3333 33.3333 35.9303 33.3333 36.6667V48.6667C33.3333 50.5076 31.841 52 30 52H20C18.1591 52 16.6667 50.5076 16.6667 48.6667V36.6667C16.6667 35.9303 16.0697 35.3333 15.3333 35.3333H3.33333C1.49238 35.3333 0 33.841 0 32V22C0 20.1591 1.49238 18.6667 3.33333 18.6667L15.3333 18.6667Z" fill="black" fill-opacity="0.25"/>
<path d="M15.3333 16.6667C16.0697 16.6667 16.6667 16.0697 16.6667 15.3333V3.33333C16.6667 1.49238 18.1591 0 20 0H30C31.841 0 33.3333 1.49238 33.3333 3.33333V15.3333C33.3333 16.0697 33.9303 16.6667 34.6667 16.6667H46.6667C48.5076 16.6667 50 18.159 50 20V30C50 31.8409 48.5076 33.3333 46.6667 33.3333H34.6667C33.9303 33.3333 33.3333 33.9303 33.3333 34.6667V46.6667C33.3333 48.5076 31.841 50 30 50H20C18.1591 50 16.6667 48.5076 16.6667 46.6667V34.6667C16.6667 33.9303 16.0697 33.3333 15.3333 33.3333H3.33333C1.49238 33.3333 0 31.841 0 30V20C0 18.1591 1.49238 16.6667 3.33333 16.6667L15.3333 16.6667Z" fill="url(#paint0_radial_32_317)"/>
<path d="M20 0.833008H30C31.3806 0.833008 32.4998 1.95245 32.5 3.33301V15.333C32.5 16.5296 33.4704 17.5 34.667 17.5H46.667C48.0476 17.5002 49.167 18.6194 49.167 20V30C49.167 31.3806 48.0476 32.4998 46.667 32.5H34.667C33.4704 32.5 32.5 33.4704 32.5 34.667V46.667C32.4998 48.0476 31.3806 49.167 30 49.167H20C18.6194 49.167 17.5002 48.0476 17.5 46.667V34.667C17.5 33.4704 16.5296 32.5 15.333 32.5H3.33301C1.95245 32.4998 0.833008 31.3806 0.833008 30V20C0.833008 18.6194 1.95245 17.5002 3.33301 17.5H15.333C16.5296 17.5 17.5 16.5296 17.5 15.333V3.33301C17.5002 1.95245 18.6194 0.833008 20 0.833008Z" stroke="url(#paint1_linear_32_317)" stroke-opacity="0.24" stroke-width="1.66667"/>
<path d="M23.5568 5.523C24.1983 4.41189 25.8021 4.41189 26.4436 5.523L28.5422 9.15795C29.1837 10.2691 28.3819 11.6579 27.0989 11.6579H22.9016C21.6186 11.6579 20.8167 10.2691 21.4582 9.15795L23.5568 5.523Z" fill="#D9D9D9" fill-opacity="0.26"/>
<path d="M26.4436 44.477C25.8021 45.5881 24.1984 45.5881 23.5569 44.477L21.4583 40.842C20.8168 39.7309 21.6186 38.3421 22.9016 38.3421L27.0989 38.3421C28.3819 38.3421 29.1838 39.7309 28.5423 40.8421L26.4436 44.477Z" fill="#D9D9D9" fill-opacity="0.26"/>
<path d="M44.4772 23.5567C45.5883 24.1982 45.5883 25.802 44.4772 26.4435L40.8423 28.5421C39.7311 29.1836 38.3423 28.3818 38.3423 27.0988L38.3423 22.9015C38.3423 21.6185 39.7312 20.8166 40.8423 21.4581L44.4772 23.5567Z" fill="#D9D9D9" fill-opacity="0.26"/>
<path d="M5.52327 26.4433C4.41216 25.8018 4.41216 24.198 5.52328 23.5565L9.15823 21.4579C10.2693 20.8164 11.6582 21.6182 11.6582 22.9012L11.6582 27.0985C11.6582 28.3815 10.2693 29.1834 9.15822 28.5419L5.52327 26.4433Z" fill="#D9D9D9" fill-opacity="0.26"/>
<circle cx="25" cy="25" r="3.37451" fill="#3B3B3B"/>
</g>
<defs>
<radialGradient id="paint0_radial_32_317" cx="0" cy="0" r="1" gradientUnits="userSpaceOnUse" gradientTransform="translate(10.3125 9.0625) rotate(50.8639) scale(41.0946)">
<stop stop-color="#545454"/>
<stop offset="1" stop-color="#3A3A3A"/>
</radialGradient>
<linearGradient id="paint1_linear_32_317" x1="42.8125" y1="42.8125" x2="15.9375" y2="15.9375" gradientUnits="userSpaceOnUse">
<stop/>
<stop offset="1" stop-opacity="0"/>
</linearGradient>
<clipPath id="clip0_32_317">
<rect width="50" height="52" fill="white"/>
</clipPath>
</defs>
</svg>
