<svg width="24" height="3" viewBox="0 0 24 3" fill="none" xmlns="http://www.w3.org/2000/svg">
<path d="M18.4562 2.66664V0.831969C18.4562 0.741303 18.3816 0.666636 18.2882 0.666636H17.2056V-3.05176e-05H20.5389V0.666636H19.4562C19.3629 0.666636 19.2882 0.741303 19.2882 0.831969V2.66664H18.4562Z" fill="black" fill-opacity="0.25"/>
<path d="M14.6027 2.66664C14.2347 2.66664 13.936 2.36797 13.936 1.99997V-3.05176e-05H16.936V0.666636H14.936C14.8454 0.666636 14.7707 0.741303 14.7707 0.831969C14.7707 0.925303 14.8454 0.99997 14.936 0.99997H16.8534V1.66664H14.936C14.8454 1.66664 14.7707 1.7413 14.7707 1.83197C14.7707 1.9253 14.8454 1.99997 14.936 1.99997H16.936V2.66664H14.6027Z" fill="black" fill-opacity="0.25"/>
<path d="M10.333 2.66664V1.99997H12.5837C12.6743 1.99997 12.749 1.9253 12.749 1.83197C12.749 1.7413 12.6743 1.66664 12.5837 1.66664H10.9997C10.6317 1.66664 10.333 1.36797 10.333 0.99997V0.666636C10.333 0.298636 10.6317 -3.05176e-05 10.9997 -3.05176e-05H13.5837V0.666636H11.333C11.2423 0.666636 11.1677 0.741303 11.1677 0.831969C11.1677 0.925303 11.2423 0.99997 11.333 0.99997H12.9997C13.3677 0.99997 13.6663 1.29864 13.6663 1.66664V1.99997C13.6663 2.36797 13.3677 2.66664 12.9997 2.66664H10.333Z" fill="black" fill-opacity="0.25"/>
<path d="M7.73014 2.66664C7.36214 2.66664 7.06348 2.36797 7.06348 1.99997V-3.05176e-05H10.0635V0.666636H8.06348C7.97281 0.666636 7.89814 0.741303 7.89814 0.831969C7.89814 0.925303 7.97281 0.99997 8.06348 0.99997H9.98081V1.66664H8.06348C7.97281 1.66664 7.89814 1.7413 7.89814 1.83197C7.89814 1.9253 7.97281 1.99997 8.06348 1.99997H10.0635V2.66664H7.73014Z" fill="black" fill-opacity="0.25"/>
<path d="M5.62845 1.25064C5.79645 1.25064 5.93778 1.12264 5.95912 0.957303C5.93778 0.794636 5.79645 0.666636 5.62845 0.666636H4.46045C4.36978 0.666636 4.29512 0.741303 4.29512 0.831969V1.08264C4.29512 1.17597 4.36978 1.25064 4.46045 1.25064H5.62845ZM3.46045 2.66664V-3.05176e-05H6.12712C6.49512 -3.05176e-05 6.79378 0.298636 6.79378 0.666636V1.1653C6.79378 1.3653 6.70578 1.54397 6.56712 1.66664C6.70578 1.7893 6.79378 1.96797 6.79378 2.1653V2.66664H5.96178V2.08264C5.96178 1.99197 5.88712 1.9173 5.79378 1.9173H4.46045C4.36978 1.9173 4.29512 1.99197 4.29512 2.08264V2.66664H3.46045Z" fill="black" fill-opacity="0.25"/>
</svg>
