<svg width="24" height="3" viewBox="0 0 24 3" fill="none" xmlns="http://www.w3.org/2000/svg">
<path d="M17.4058 1.25064C17.5738 1.25064 17.7151 1.12264 17.7365 0.957303C17.7151 0.794636 17.5738 0.666636 17.4058 0.666636H16.2378C16.1471 0.666636 16.0725 0.741303 16.0725 0.831969V1.08264C16.0725 1.17597 16.1471 1.25064 16.2378 1.25064H17.4058ZM15.2378 2.66664V-3.05176e-05H17.9045C18.2725 -3.05176e-05 18.5711 0.298636 18.5711 0.666636V1.3333H18.5658C18.5258 1.6613 18.2431 1.9173 17.9045 1.9173H16.2378C16.1471 1.9173 16.0725 1.99197 16.0725 2.08264V2.66664H15.2378Z" fill="black" fill-opacity="0.25"/>
<path d="M12.9684 2.66664C12.6004 2.66664 12.3018 2.36797 12.3018 1.99997V-3.05176e-05H13.1364V1.66664C13.1364 1.85064 13.2858 1.99997 13.4698 1.99997H15.0511V2.66664H12.9684Z" fill="black" fill-opacity="0.25"/>
<path d="M9.69889 2.66664C9.33089 2.66664 9.03223 2.36797 9.03223 1.99997V-3.05176e-05H12.0322V0.666636H10.0322C9.94156 0.666636 9.86689 0.741303 9.86689 0.831969C9.86689 0.925303 9.94156 0.99997 10.0322 0.99997H11.9496V1.66664H10.0322C9.94156 1.66664 9.86689 1.7413 9.86689 1.83197C9.86689 1.9253 9.94156 1.99997 10.0322 1.99997H12.0322V2.66664H9.69889Z" fill="black" fill-opacity="0.25"/>
<path d="M5.4292 2.66664V-3.05176e-05H6.26387V0.831969C6.26387 0.925303 6.33853 0.99997 6.4292 0.99997H7.76253C7.85587 0.99997 7.93053 0.925303 7.93053 0.831969V-3.05176e-05H8.76253V2.66664H7.93053V1.83197C7.93053 1.7413 7.85587 1.66664 7.76253 1.66664H6.4292C6.33853 1.66664 6.26387 1.7413 6.26387 1.83197V2.66664H5.4292Z" fill="black" fill-opacity="0.25"/>
</svg>
