<svg width="30" height="5" viewBox="0 0 30 5" fill="none" xmlns="http://www.w3.org/2000/svg">
<path d="M22.9649 1.876C23.2169 1.876 23.4289 1.684 23.4609 1.436C23.4289 1.192 23.2169 1 22.9649 1H21.2129C21.0769 1 20.9649 1.112 20.9649 1.248V1.624C20.9649 1.764 21.0769 1.876 21.2129 1.876H22.9649ZM19.7129 4V0H23.7129C24.2649 0 24.7129 0.448 24.7129 1V2H24.7049C24.6449 2.492 24.2209 2.876 23.7129 2.876H21.2129C21.0769 2.876 20.9649 2.988 20.9649 3.124V4H19.7129Z" fill="black" fill-opacity="0.25"/>
<path d="M16.3091 4C15.7571 4 15.3091 3.552 15.3091 3V0H16.5611V2.5C16.5611 2.776 16.7851 3 17.0611 3H19.4331V4H16.3091Z" fill="black" fill-opacity="0.25"/>
<path d="M11.4048 4C10.8528 4 10.4048 3.552 10.4048 3V0H14.9048V1H11.9048C11.7688 1 11.6568 1.112 11.6568 1.248C11.6568 1.388 11.7688 1.5 11.9048 1.5H14.7808V2.5H11.9048C11.7688 2.5 11.6568 2.612 11.6568 2.748C11.6568 2.888 11.7688 3 11.9048 3H14.9048V4H11.4048Z" fill="black" fill-opacity="0.25"/>
<path d="M5 4V0H6.252V1.248C6.252 1.388 6.364 1.5 6.5 1.5H8.5C8.64 1.5 8.752 1.388 8.752 1.248V0H10V4H8.752V2.748C8.752 2.612 8.64 2.5 8.5 2.5H6.5C6.364 2.5 6.252 2.612 6.252 2.748V4H5Z" fill="black" fill-opacity="0.25"/>
</svg>
