<svg width="30" height="5" viewBox="0 0 30 5" fill="none" xmlns="http://www.w3.org/2000/svg">
<g clip-path="url(#clip0_33_385)">
<path d="M3.52125 4V0H9.52125C10.0733 0 10.5213 0.448 10.5213 1V4H9.27325V1.5C9.27325 1.224 9.04925 1 8.77325 1H7.89725C7.75725 1 7.64525 1.112 7.64525 1.248V4H6.39725V1.248C6.39725 1.112 6.28525 1 6.14525 1H5.02125C4.88525 1 4.77325 1.112 4.77325 1.248V4H3.52125ZM11.8456 4C11.2936 4 10.8456 3.552 10.8456 3V0H15.3456V1H12.3456C12.2096 1 12.0976 1.112 12.0976 1.248C12.0976 1.388 12.2096 1.5 12.3456 1.5H15.2216V2.5H12.3456C12.2096 2.5 12.0976 2.612 12.0976 2.748C12.0976 2.888 12.2096 3 12.3456 3H15.3456V4H11.8456ZM15.67 4V0H19.67C20.222 0 20.67 0.448 20.67 1V4H19.422V1.5C19.422 1.224 19.198 1 18.922 1H17.422C17.146 1 16.922 1.224 16.922 1.5V4H15.67ZM21.9944 4C21.4424 4 20.9944 3.552 20.9944 3V0H22.2464V2.5C22.2464 2.776 22.4704 3 22.7464 3H24.4944C24.6344 3 24.7464 2.888 24.7464 2.748V0H25.9944V4H21.9944Z" fill="black" fill-opacity="0.25"/>
</g>
<defs>
<clipPath id="clip0_33_385">
<rect width="30" height="5" fill="white"/>
</clipPath>
</defs>
</svg>
