<svg width="30" height="5" viewBox="0 0 30 5" fill="none" xmlns="http://www.w3.org/2000/svg">
<path d="M24.4937 4V1.248C24.4937 1.112 24.3817 1 24.2417 1H22.6177V0H27.6177V1H25.9937C25.8537 1 25.7417 1.112 25.7417 1.248V4H24.4937Z" fill="black" fill-opacity="0.25"/>
<path d="M18.7134 4C18.1614 4 17.7134 3.552 17.7134 3V0H22.2134V1H19.2134C19.0774 1 18.9654 1.112 18.9654 1.248C18.9654 1.388 19.0774 1.5 19.2134 1.5H22.0894V2.5H19.2134C19.0774 2.5 18.9654 2.612 18.9654 2.748C18.9654 2.888 19.0774 3 19.2134 3H22.2134V4H18.7134Z" fill="black" fill-opacity="0.25"/>
<path d="M12.3086 4V3H15.6846C15.8206 3 15.9326 2.888 15.9326 2.748C15.9326 2.612 15.8206 2.5 15.6846 2.5H13.3086C12.7566 2.5 12.3086 2.052 12.3086 1.5V1C12.3086 0.448 12.7566 0 13.3086 0H17.1846V1H13.8086C13.6726 1 13.5606 1.112 13.5606 1.248C13.5606 1.388 13.6726 1.5 13.8086 1.5H16.3086C16.8606 1.5 17.3086 1.948 17.3086 2.5V3C17.3086 3.552 16.8606 4 16.3086 4H12.3086Z" fill="black" fill-opacity="0.25"/>
<path d="M8.4043 4C7.8523 4 7.4043 3.552 7.4043 3V0H11.9043V1H8.9043C8.7683 1 8.6563 1.112 8.6563 1.248C8.6563 1.388 8.7683 1.5 8.9043 1.5H11.7803V2.5H8.9043C8.7683 2.5 8.6563 2.612 8.6563 2.748C8.6563 2.888 8.7683 3 8.9043 3H11.9043V4H8.4043Z" fill="black" fill-opacity="0.25"/>
<path d="M5.252 1.876C5.504 1.876 5.716 1.684 5.748 1.436C5.716 1.192 5.504 1 5.252 1H3.5C3.364 1 3.252 1.112 3.252 1.248V1.624C3.252 1.764 3.364 1.876 3.5 1.876H5.252ZM2 4V0H6C6.552 0 7 0.448 7 1V1.748C7 2.048 6.868 2.316 6.66 2.5C6.868 2.684 7 2.952 7 3.248V4H5.752V3.124C5.752 2.988 5.64 2.876 5.5 2.876H3.5C3.364 2.876 3.252 2.988 3.252 3.124V4H2Z" fill="black" fill-opacity="0.25"/>
</svg>
